<mxfile host="app.diagrams.net" modified="2024-05-29T07:59:07.475Z" agent="Mozilla/5.0 (Windows NT 10.0; Win64; x64) AppleWebKit/537.36 (KHTML, like Gecko) Chrome/125.0.0.0 Safari/537.36 Edg/125.0.0.0" etag="RykipuuN90OKsP8zlw4t" version="24.4.9" type="github">
  <diagram name="第 1 页" id="_Oi1T2eX_YWZHJBG8FeJ">
    <mxGraphModel dx="1195" dy="696" grid="1" gridSize="10" guides="1" tooltips="1" connect="1" arrows="1" fold="1" page="1" pageScale="1" pageWidth="827" pageHeight="1169" math="0" shadow="0">
      <root>
        <mxCell id="0" />
        <mxCell id="1" parent="0" />
        <mxCell id="ahvlAM_R0MREE3XYgPcO-7" value="" style="verticalLabelPosition=bottom;dashed=0;shadow=0;html=1;align=center;verticalAlign=top;shape=mxgraph.cabinets.cb_4p;" vertex="1" parent="1">
          <mxGeometry x="430" y="55" width="36" height="50" as="geometry" />
        </mxCell>
      </root>
    </mxGraphModel>
  </diagram>
</mxfile>
